<?xml version="1.0" encoding="UTF-8"?><svg xmlns="http://www.w3.org/2000/svg" xmlns:xlink="http://www.w3.org/1999/xlink" viewBox="0 0 1024 1024"><defs><style>.h{fill:url(#f);}.i{fill:url(#g);}.j{fill:#d4d4d4;}</style><linearGradient id="f" x1="512" y1="1024" x2="512" y2="0" gradientTransform="matrix(1, 0, 0, 1, 0, 0)" gradientUnits="userSpaceOnUse"><stop offset="0" stop-color="#e60034"/><stop offset=".66" stop-color="#e73827"/></linearGradient><linearGradient id="g" x1="452.74" y1="851.99" x2="1152.69" y2="851.99" gradientTransform="translate(-259.63 -295.81) rotate(-8.16) scale(.9 1.11) skewX(-3.87)" xlink:href="#f"/></defs><g id="a"/><g id="b"><g id="c"/></g><g id="d"><g id="e"><polyline class="h" points="0 1024 178.09 178.09 979.48 0 1024 1024"/><polyline class="j" points="44.52 979.48 207.12 207.12 938.83 44.52 979.48 979.48"/><path class="i" d="M512.42,271.15c-171.69,24.61-301.09,155.41-289.03,292.15,4.68,53.02,29.97,99.11,69.15,134.28,2.18,1.96,3.15,5.41,2.36,8.63l-38.03,153.61c-1.77,7.13,4.66,12.99,9.55,8.7l127.28-111.63c1.46-1.28,3.26-1.71,4.99-1.18,47.36,14.3,101.15,18.69,157.41,10.63,171.69-24.61,301.09-155.41,289.03-292.15-12.06-136.74-161.02-227.65-332.71-203.05Z"/></g></g></svg>