<?xml version="1.0" encoding="UTF-8"?><svg xmlns="http://www.w3.org/2000/svg" xmlns:xlink="http://www.w3.org/1999/xlink" viewBox="0 0 1024 805"><defs><style>.p{fill:url(#l);}.q{fill:#d4d4d4;}.r{fill:url(#k);}.s{fill:#1d1d1b;}</style><linearGradient id="k" x1="136.93" y1="274.84" x2="136.93" y2=".98" gradientTransform="matrix(1, 0, 0, 1, 0, 0)" gradientUnits="userSpaceOnUse"><stop offset="0" stop-color="#e60034"/><stop offset=".66" stop-color="#e73827"/></linearGradient><linearGradient id="l" x1="173.85" y1="288.95" x2="361.04" y2="288.95" gradientTransform="translate(-122.3 -139.34) rotate(-8.16) scale(.9 1.11) skewX(-3.87)" xlink:href="#k"/></defs><g id="a"><g id="b"><g id="c"><g><g id="d"><polygon class="q" points="589.16 707.96 586.83 707.96 540.64 584.42 473.48 584.42 473.48 798.75 526.28 798.75 526.28 675.59 527.83 675.59 572.08 798.75 603.91 798.75 648.17 676.44 649.72 676.44 649.72 798.75 702.51 798.75 702.51 584.42 635.36 584.42 589.16 707.96"/><path class="q" d="M85.11,642.02c7.13-4.73,15.87-7.1,26.23-7.1,5.91,0,11.2,.78,15.86,2.35,4.66,1.56,8.63,3.79,11.92,6.68,3.29,2.89,5.88,6.31,7.76,10.28,1.89,3.96,3.05,8.38,3.49,13.25h62.54c-1.18-13.29-4.55-25.08-10.09-35.37-5.54-10.3-12.86-18.97-21.96-26.04-9.09-7.06-19.66-12.43-31.71-16.12-12.05-3.69-25.25-5.53-39.59-5.53-20.4,0-38.89,4.19-55.44,12.57-16.56,8.38-29.72,20.73-39.48,37.04-9.76,16.31-14.64,36.37-14.64,60.16s4.79,43.65,14.36,60c9.57,16.35,22.62,28.73,39.14,37.15,16.52,8.42,35.21,12.63,56.05,12.63,16.63,0,31.23-2.4,43.8-7.2,12.57-4.8,23.12-11.15,31.66-19.04,8.54-7.89,15.14-16.52,19.79-25.88,4.66-9.36,7.36-18.56,8.1-27.6l-62.54-.42c-.74,4.59-2.16,8.71-4.27,12.37-2.11,3.65-4.82,6.77-8.15,9.34-3.33,2.57-7.25,4.54-11.75,5.9-4.51,1.36-9.61,2.03-15.3,2.03-9.98,0-18.52-2.21-25.62-6.63-7.1-4.42-12.51-11.03-16.24-19.83-3.73-8.8-5.6-19.74-5.6-32.82,0-12.38,1.83-22.99,5.49-31.83,3.66-8.83,9.05-15.62,16.19-20.35Z"/><path class="q" d="M397.91,596.99c-16.71-8.38-35.34-12.57-55.89-12.57s-39.39,4.19-56.05,12.57c-16.67,8.38-29.9,20.73-39.7,37.04-9.8,16.31-14.69,36.37-14.69,60.16s4.9,43.64,14.69,59.95c9.79,16.31,23.03,28.7,39.7,37.15,16.67,8.45,35.35,12.68,56.05,12.68s39.18-4.19,55.89-12.57c16.71-8.38,29.98-20.73,39.81-37.05,9.83-16.31,14.75-36.37,14.75-60.16s-4.92-43.84-14.75-60.16c-9.83-16.31-23.1-28.66-39.81-37.04Zm-14.25,129.6c-3.59,8.8-8.87,15.48-15.86,20.04-6.99,4.56-15.58,6.83-25.78,6.83s-18.8-2.28-25.78-6.83c-6.99-4.56-12.27-11.23-15.86-20.04-3.59-8.8-5.38-19.6-5.38-32.4s1.79-23.6,5.38-32.4c3.58-8.8,8.87-15.48,15.86-20.04,6.99-4.56,15.58-6.83,25.78-6.83s18.8,2.28,25.78,6.83c6.99,4.56,12.27,11.24,15.86,20.04,3.58,8.8,5.38,19.6,5.38,32.4s-1.79,23.6-5.38,32.4Z"/><rect class="q" x="724.21" y="584.42" width="61.65" height="214.33"/><path class="q" d="M957.19,736.25c-2.11,3.65-4.82,6.77-8.15,9.34-3.33,2.57-7.25,4.54-11.75,5.9-4.51,1.36-9.61,2.03-15.3,2.03-9.98,0-18.52-2.21-25.62-6.63-7.1-4.42-12.51-11.03-16.25-19.83s-5.6-19.74-5.6-32.82c0-12.38,1.83-22.99,5.49-31.83,3.66-8.83,9.05-15.62,16.19-20.35,7.13-4.73,15.88-7.1,26.23-7.1,5.91,0,11.2,.78,15.86,2.35,4.66,1.56,8.63,3.79,11.92,6.68,3.29,2.89,5.88,6.31,7.76,10.28,1.89,3.96,3.05,8.38,3.49,13.25h62.54c-1.18-13.29-4.55-25.08-10.09-35.37-5.54-10.3-12.86-18.97-21.96-26.04s-19.67-12.43-31.71-16.12c-12.05-3.69-25.25-5.53-39.59-5.53-20.4,0-38.89,4.19-55.44,12.57-16.56,8.38-29.72,20.73-39.48,37.04-9.76,16.31-14.64,36.37-14.64,60.16s4.79,43.65,14.36,60c9.57,16.35,22.62,28.73,39.14,37.15,16.52,8.42,35.21,12.63,56.05,12.63,16.63,0,31.23-2.4,43.8-7.2,12.57-4.8,23.12-11.15,31.66-19.04,8.54-7.89,15.14-16.52,19.79-25.88,4.66-9.36,7.36-18.56,8.1-27.6l-62.54-.42c-.74,4.59-2.16,8.71-4.27,12.37Z"/></g><g id="e"><path class="q" d="M273.86,541.89v-243.24h-80.3l-55.24,147.72h-2.79l-55.24-147.72H0v261.95H63.13v-152.94h1.86l52.92,152.94h38.06l52.92-151.92h1.86v151.92h122.66l32.53-51.06h98.45v51.06h59.53V298.65h-95.26l-154.79,243.24Zm190.51-183.71v98.38h-64.7l62.67-98.38h2.04Z"/><polygon class="q" points="1024 358.19 1024 298.65 797.77 298.65 797.77 560.61 1023.49 560.61 1023.49 501.07 869.21 501.07 869.21 453.44 1000.19 453.44 1000.19 405.82 869.21 405.82 869.21 358.19 1024 358.19"/><polygon class="q" points="535.81 358.19 619.16 358.19 619.16 560.61 690.6 560.61 690.6 358.19 773.95 358.19 773.95 298.65 535.81 298.65 535.81 358.19"/></g><g id="f"><path class="q" d="M461.67,.98h75.23V172.01c0,21.11-5.03,39.35-15.09,54.73-10.06,15.38-24.06,27.24-42.01,35.59-17.95,8.34-38.79,12.52-62.51,12.52s-44.83-4.17-62.78-12.52c-17.95-8.34-31.91-20.2-41.88-35.59-9.97-15.38-14.95-33.62-14.95-54.73V.98h75.23V165.51c0,8.57,1.89,16.22,5.68,22.93,3.79,6.72,9.04,11.97,15.76,15.76,6.72,3.79,14.36,5.68,22.93,5.68s16.33-1.89,23-5.68c6.67-3.79,11.91-9.04,15.7-15.76,3.79-6.72,5.68-14.36,5.68-22.93V.98Z"/><path class="q" d="M559.63,274.84V.98h71.44V215.3h119.07v59.53h-190.51Z"/><path class="q" d="M690.6,60.51V.98h238.14V60.51h-83.35v214.33h-71.44V60.51h-83.35Z"/><path class="q" d="M1024,.98V274.84h-71.44V.98h71.44Z"/></g></g><g><g id="g"><polygon class="s" points="589.16 707.96 586.83 707.96 540.64 584.42 473.48 584.42 473.48 798.75 526.28 798.75 526.28 675.59 527.83 675.59 572.08 798.75 603.91 798.75 648.17 676.44 649.72 676.44 649.72 798.75 702.51 798.75 702.51 584.42 635.36 584.42 589.16 707.96"/><path class="s" d="M85.11,642.02c7.13-4.73,15.87-7.1,26.23-7.1,5.91,0,11.2,.78,15.86,2.35,4.66,1.56,8.63,3.79,11.92,6.68,3.29,2.89,5.88,6.31,7.76,10.28,1.89,3.96,3.05,8.38,3.49,13.25h62.54c-1.18-13.29-4.55-25.08-10.09-35.37-5.54-10.3-12.86-18.97-21.96-26.04-9.09-7.06-19.66-12.43-31.71-16.12-12.05-3.69-25.25-5.53-39.59-5.53-20.4,0-38.89,4.19-55.44,12.57-16.56,8.38-29.72,20.73-39.48,37.04-9.76,16.31-14.64,36.37-14.64,60.16s4.79,43.65,14.36,60c9.57,16.35,22.62,28.73,39.14,37.15,16.52,8.42,35.21,12.63,56.05,12.63,16.63,0,31.23-2.4,43.8-7.2,12.57-4.8,23.12-11.15,31.66-19.04,8.54-7.89,15.14-16.52,19.79-25.88,4.66-9.36,7.36-18.56,8.1-27.6l-62.54-.42c-.74,4.59-2.16,8.71-4.27,12.37-2.11,3.65-4.82,6.77-8.15,9.34-3.33,2.57-7.25,4.54-11.75,5.9-4.51,1.36-9.61,2.03-15.3,2.03-9.98,0-18.52-2.21-25.62-6.63-7.1-4.42-12.51-11.03-16.24-19.83-3.73-8.8-5.6-19.74-5.6-32.82,0-12.38,1.83-22.99,5.49-31.83,3.66-8.83,9.05-15.62,16.19-20.35Z"/><path class="s" d="M397.91,596.99c-16.71-8.38-35.34-12.57-55.89-12.57s-39.39,4.19-56.05,12.57c-16.67,8.38-29.9,20.73-39.7,37.04-9.8,16.31-14.69,36.37-14.69,60.16s4.9,43.64,14.69,59.95c9.79,16.31,23.03,28.7,39.7,37.15,16.67,8.45,35.35,12.68,56.05,12.68s39.18-4.19,55.89-12.57c16.71-8.38,29.98-20.73,39.81-37.05,9.83-16.31,14.75-36.37,14.75-60.16s-4.92-43.84-14.75-60.16c-9.83-16.31-23.1-28.66-39.81-37.04Zm-14.25,129.6c-3.59,8.8-8.87,15.48-15.86,20.04-6.99,4.56-15.58,6.83-25.78,6.83s-18.8-2.28-25.78-6.83c-6.99-4.56-12.27-11.23-15.86-20.04-3.59-8.8-5.38-19.6-5.38-32.4s1.79-23.6,5.38-32.4c3.58-8.8,8.87-15.48,15.86-20.04,6.99-4.56,15.58-6.83,25.78-6.83s18.8,2.28,25.78,6.83c6.99,4.56,12.27,11.24,15.86,20.04,3.58,8.8,5.38,19.6,5.38,32.4s-1.79,23.6-5.38,32.4Z"/><rect class="s" x="724.21" y="584.42" width="61.65" height="214.33"/><path class="s" d="M957.19,736.25c-2.11,3.65-4.82,6.77-8.15,9.34-3.33,2.57-7.25,4.54-11.75,5.9-4.51,1.36-9.61,2.03-15.3,2.03-9.98,0-18.52-2.21-25.62-6.63-7.1-4.42-12.51-11.03-16.25-19.83s-5.6-19.74-5.6-32.82c0-12.38,1.83-22.99,5.49-31.83,3.66-8.83,9.05-15.62,16.19-20.35,7.13-4.73,15.88-7.1,26.23-7.1,5.91,0,11.2,.78,15.86,2.35,4.66,1.56,8.63,3.79,11.92,6.68,3.29,2.89,5.88,6.31,7.76,10.28,1.89,3.96,3.05,8.38,3.49,13.25h62.54c-1.18-13.29-4.55-25.08-10.09-35.37-5.54-10.3-12.86-18.97-21.96-26.04s-19.67-12.43-31.71-16.12c-12.05-3.69-25.25-5.53-39.59-5.53-20.4,0-38.89,4.19-55.44,12.57-16.56,8.38-29.72,20.73-39.48,37.04-9.76,16.31-14.64,36.37-14.64,60.16s4.79,43.65,14.36,60c9.57,16.35,22.62,28.73,39.14,37.15,16.52,8.42,35.21,12.63,56.05,12.63,16.63,0,31.23-2.4,43.8-7.2,12.57-4.8,23.12-11.15,31.66-19.04,8.54-7.89,15.14-16.52,19.79-25.88,4.66-9.36,7.36-18.56,8.1-27.6l-62.54-.42c-.74,4.59-2.16,8.71-4.27,12.37Z"/></g><g id="h"><path class="s" d="M273.86,541.89v-243.24h-80.3l-55.24,147.72h-2.79l-55.24-147.72H0v261.95H63.13v-152.94h1.86l52.92,152.94h38.06l52.92-151.92h1.86v151.92h122.66l32.53-51.06h98.45v51.06h59.53V298.65h-95.26l-154.79,243.24Zm190.51-183.71v98.38h-64.7l62.67-98.38h2.04Z"/><polygon class="s" points="1024 358.19 1024 298.65 797.77 298.65 797.77 560.61 1023.49 560.61 1023.49 501.07 869.21 501.07 869.21 453.44 1000.19 453.44 1000.19 405.82 869.21 405.82 869.21 358.19 1024 358.19"/><polygon class="s" points="535.81 358.19 619.16 358.19 619.16 560.61 690.6 560.61 690.6 358.19 773.95 358.19 773.95 298.65 535.81 298.65 535.81 358.19"/></g><g id="i"><path class="s" d="M461.67,.98h75.23V172.01c0,21.11-5.03,39.35-15.09,54.73-10.06,15.38-24.06,27.24-42.01,35.59-17.95,8.34-38.79,12.52-62.51,12.52s-44.83-4.17-62.78-12.52c-17.95-8.34-31.91-20.2-41.88-35.59-9.97-15.38-14.95-33.62-14.95-54.73V.98h75.23V165.51c0,8.57,1.89,16.22,5.68,22.93,3.79,6.72,9.04,11.97,15.76,15.76,6.72,3.79,14.36,5.68,22.93,5.68s16.33-1.89,23-5.68c6.67-3.79,11.91-9.04,15.7-15.76,3.79-6.72,5.68-14.36,5.68-22.93V.98Z"/><path class="s" d="M559.63,274.84V.98h71.44V215.3h119.07v59.53h-190.51Z"/><path class="s" d="M690.6,60.51V.98h238.14V60.51h-83.35v214.33h-71.44V60.51h-83.35Z"/><path class="s" d="M1024,.98V274.84h-71.44V.98h71.44Z"/></g></g></g><g id="j"><polyline class="r" points="0 274.84 47.63 48.61 261.95 .98 273.86 274.84"/><polyline class="q" points="11.91 262.93 55.39 56.37 251.08 12.88 261.95 262.93"/><path class="p" d="M137.04,73.49c-45.92,6.58-80.53,41.56-77.3,78.13,1.25,14.18,8.02,26.51,18.49,35.91,.58,.52,.84,1.45,.63,2.31l-10.17,41.08c-.47,1.91,1.25,3.47,2.55,2.33l34.04-29.85c.39-.34,.87-.46,1.33-.32,12.67,3.82,27.05,5,42.1,2.84,45.92-6.58,80.53-41.56,77.3-78.13-3.23-36.57-43.06-60.88-88.98-54.3Z"/></g></g></g><g id="m"><g id="n"/></g><g id="o"/></svg>